<?xml version="1.0" encoding="UTF-8"?>
<svg id="Layer_2" data-name="Layer 2" xmlns="http://www.w3.org/2000/svg" viewBox="0 0 239.61 239.61">
  <defs>
    <style>
      .cls-1 {
        fill: #bcbec0;
      }
    </style>
  </defs>
  <g id="Layer_1-2" data-name="Layer 1">
    <g>
      <rect width="239.61" height="239.61"/>
      <g>
        <path class="cls-1" d="M173.61,137.42l-35.71-35.71-.04-.04h-34.8c-.63,0-1.14-.51-1.14-1.14v-33.73c0-.63-.51-1.14-1.14-1.14h-33.98c-.63,0-1.14.51-1.14,1.14v34.58c0,.3.12.59.33.8l33.56,33.56c.72.72.21,1.94-.8,1.94h-31.95c-.63,0-1.14.51-1.14,1.14v33.98c0,.63.51,1.14,1.14,1.14h33.98c.63,0,1.14-.51,1.14-1.14v-33.73c0-.63.51-1.14,1.14-1.14h33.48c.63,0,1.14.51,1.14,1.14v33.73c0,.63.51,1.14,1.14,1.14h33.98c.63,0,1.14-.51,1.14-1.14v-34.58c0-.3-.12-.59-.33-.8Z"/>
        <path class="cls-1" d="M141.01,99.85h31.4c.77,0,1.39-.62,1.39-1.39v-31.4c0-.77-.62-1.39-1.39-1.39h-31.4c-.77,0-1.39.62-1.39,1.39v31.4c0,.77.62,1.39,1.39,1.39ZM147.94,88.89h17.54v4h-17.54v-4Z"/>
      </g>
    </g>
  </g>
</svg>