<?xml version="1.0" encoding="UTF-8"?>
<svg id="Layer_2" data-name="Layer 2" xmlns="http://www.w3.org/2000/svg" viewBox="0 0 239.61 239.61">
  <defs>
    <style>
      .cls-1 {
        fill: #ed1c24;
      }
    </style>
  </defs>
  <g id="Layer_1-2" data-name="Layer 1">
    <g>
      <rect class="cls-1" width="239.61" height="239.61"/>
      <g>
        <path d="M155.81,101.77c9.91,0,17.98-8.06,17.98-17.98s-8.06-17.98-17.98-17.98-17.98,8.06-17.98,17.98,8.06,17.98,17.98,17.98ZM155.81,99.04c-5.05,0-9.53-2.48-12.3-6.28-.35-.48,0-1.16.59-1.16h1.46c.85,0,1.68.26,2.37.75s1.51.75,2.37.75h11.28c.85,0,1.68-.26,2.37-.75s1.51-.75,2.37-.75h1.21c.59,0,.94.68.59,1.16-2.77,3.8-7.25,6.28-12.3,6.28ZM170.17,82.46h-28.72c-.43,0-.78-.38-.72-.81.2-1.37.58-2.68,1.11-3.91.11-.26.38-.43.67-.43h3.05c.85,0,1.68.26,2.37.75s1.51.75,2.37.75h11.28c.85,0,1.68-.26,2.37-.75s1.51-.75,2.37-.75h2.8c.29,0,.55.17.67.43.54,1.23.92,2.54,1.11,3.91.06.43-.29.81-.72.81ZM140.61,84.46h4.72c.87,0,1.72.26,2.42.75s1.55.75,2.42.75h11.54c.87,0,1.72-.26,2.42-.75s1.55-.75,2.42-.75h3.69c.42,0,.76.36.72.78-.13,1.36-.43,2.67-.89,3.91-.11.28-.38.46-.68.46h-27.17c-.3,0-.58-.18-.68-.46-.55-1.47-.87-3.04-.94-4.69,0,0,0,0,0,0ZM155.81,68.55c4.73,0,8.97,2.17,11.77,5.57.39.47.04,1.18-.57,1.18h-22.41c-.61,0-.95-.71-.57-1.18,2.8-3.4,7.03-5.57,11.77-5.57Z"/>
        <path d="M173.61,137.42l-35.71-35.71-.04-.04h-34.8c-.63,0-1.14-.51-1.14-1.14v-33.73c0-.63-.51-1.14-1.14-1.14h-33.98c-.63,0-1.14.51-1.14,1.14v34.58c0,.3.12.59.33.8l33.56,33.56c.72.72.21,1.94-.8,1.94h-31.95c-.63,0-1.14.51-1.14,1.14v33.98c0,.63.51,1.14,1.14,1.14h33.98c.63,0,1.14-.51,1.14-1.14v-33.73c0-.63.51-1.14,1.14-1.14h33.48c.63,0,1.14.51,1.14,1.14v33.73c0,.63.51,1.14,1.14,1.14h33.98c.63,0,1.14-.51,1.14-1.14v-34.58c0-.3-.12-.59-.33-.8Z"/>
      </g>
    </g>
  </g>
</svg>
